<?xml version="1.0" encoding="UTF-8" standalone="no"?>
<svg width="43px" height="44px" viewBox="0 0 43 44" version="1.1" xmlns="http://www.w3.org/2000/svg" xmlns:xlink="http://www.w3.org/1999/xlink" xmlns:sketch="http://www.bohemiancoding.com/sketch/ns">
    <!-- Generator: Sketch 3.3 (11970) - http://www.bohemiancoding.com/sketch -->
    <title>deleteStickyNote</title>
    <desc>Created with Sketch.</desc>
    <defs></defs>
    <g id="Page-1" stroke="none" stroke-width="1" fill="none" fill-rule="evenodd" sketch:type="MSPage">
        <g id="128-copy-2" sketch:type="MSArtboardGroup" transform="translate(-42.000000, -41.000000)">
            <g id="deleteStickyNote" sketch:type="MSLayerGroup" transform="translate(27.000000, 27.000000)">
                <path d="M15.6461394,22.2420069 L30.4950849,37.0909523 L15.4958501,52.0901871 L21.4355471,58.029884 L36.4347818,43.0306493 L51.2840242,57.8798917 L57.2837181,51.8801978 L42.4344757,37.0309554 L57.4337105,22.0317206 L51.4940135,16.0920237 L36.4947788,31.0912584 L21.6458333,16.242313 L15.6461394,22.2420069 L15.6461394,22.2420069 Z" id="redCrossBackground" fill="#000000" sketch:type="MSShapeGroup"></path>
                <path d="M30.6430821,35.8512463 L15.6438473,50.850481 L21.5835443,56.790178 L36.582779,41.7909432 L51.4320214,56.6401856 L57.4317153,50.6404917 L42.5824729,35.7912493 L57.5817077,20.7920146 L51.6420107,14.8523176 L36.642776,29.8515524 L21.7935336,15.00231 L15.7938397,21.0020039 L30.6430821,35.8512463 L30.6430821,35.8512463 Z" id="redCrossForeground" fill="#D0011B" sketch:type="MSShapeGroup"></path>
            </g>
        </g>
    </g>
</svg>