<?xml version="1.0" encoding="UTF-8" standalone="no"?>
<svg width="75px" height="77px" viewBox="0 0 75 77" version="1.1" xmlns="http://www.w3.org/2000/svg" xmlns:xlink="http://www.w3.org/1999/xlink" xmlns:sketch="http://www.bohemiancoding.com/sketch/ns">
    <!-- Generator: Sketch 3.3 (11970) - http://www.bohemiancoding.com/sketch -->
    <title>newStickyNote</title>
    <desc>Created with Sketch.</desc>
    <defs></defs>
    <g id="Page-1" stroke="none" stroke-width="1" fill="none" fill-rule="evenodd" sketch:type="MSPage">
        <g id="128" sketch:type="MSArtboardGroup" transform="translate(-27.000000, -26.000000)">
            <g id="newStickyNote" sketch:type="MSLayerGroup" transform="translate(27.000000, 25.000000)">
                <g id="Group" sketch:type="MSShapeGroup">
                    <path d="M0,9.02857143 L0,59.9309048 L0,69.2190476 C0,73.3759524 3.35775,76.7428571 7.5,76.7428571 L22.5,76.7428571 L52.5,76.7428571 L75,54.1714286 L75,9.02857143 L0,9.02857143 L0,9.02857143 Z" id="Shape" fill="#F1C40F"></path>
                    <g id="Shape" fill="#F39C12">
                        <path d="M11.25,27.8380952 L11.25,31.6 L63.75,31.6 L63.75,27.8380952 L11.25,27.8380952 L11.25,27.8380952 Z M11.25,39.1238095 L11.25,42.8857143 L63.75,42.8857143 L63.75,39.1238095 L11.25,39.1238095 L11.25,39.1238095 Z M11.25,50.4095238 L11.25,54.1714286 L37.5,54.1714286 L37.5,50.4095238 L11.25,50.4095238 L11.25,50.4095238 Z"></path>
                        <path d="M75,54.1714286 L52.5,76.7428571 L52.5,61.6952381 C52.5,57.5571429 55.85625,54.1714286 60,54.1714286 L75,54.1714286 L75,54.1714286 Z"></path>
                        <path d="M0,12.7904762 L0,9.02857143 C0,4.89047619 3.35775,1.5047619 7.5,1.5047619 L22.5,1.5047619 L52.5,1.5047619 L67.5,1.5047619 C71.64375,1.5047619 75,4.89047619 75,9.02857143 L75,12.7904762 L0,12.7904762 L0,12.7904762 Z"></path>
                    </g>
                </g>
                <g id="Group" transform="translate(60.967282, 63.038299) rotate(2.000000) translate(-60.967282, -63.038299) translate(46.467282, 47.538299)" sketch:type="MSShapeGroup">
                    <path d="M28,16.1212121 C28,23.9315152 21.7322,30.2626263 14,30.2626263 C6.26808,30.2626263 2.84217094e-14,23.9315152 2.84217094e-14,16.1212121 C2.84217094e-14,8.31119192 6.26808,1.97979798 14,1.97979798 C21.7322,1.97979798 28,8.31119192 28,16.1212121 L28,16.1212121 Z" id="Shape" fill="#27AE60"></path>
                    <path d="M28,14.7070707 C28,22.5173737 21.7322,28.8484848 14,28.8484848 C6.26808,28.8484848 9.9475983e-14,22.5173737 9.9475983e-14,14.7070707 C9.9475983e-14,6.89705051 6.26808,0.565656566 14,0.565656566 C21.7322,0.565656566 28,6.89705051 28,14.7070707 L28,14.7070707 Z" id="Shape" fill="#2ECC71"></path>
                    <path d="M5.60014,17.5353535 L12.6,17.5353535 L12.6,24.6060606 L15.4,24.6060606 L15.4,17.5353535 L22.4,17.5353535 L22.4,14.7070707 L15.4,14.7070707 L15.4,7.63636364 L12.6,7.63636364 L12.6,14.7070707 L5.60014,14.7070707 L5.60014,17.5353535 L5.60014,17.5353535 Z" id="Shape" fill="#27AE60"></path>
                    <path d="M5.6,16.1212121 L12.6,16.1212121 L12.6,23.1919192 L15.4,23.1919192 L15.4,16.1212121 L22.4,16.1212121 L22.4,13.2929293 L15.4,13.2929293 L15.4,6.22222222 L12.6,6.22222222 L12.6,13.2929293 L5.6,13.2929293 L5.6,16.1212121 L5.6,16.1212121 Z" id="Shape" fill="#ECF0F1"></path>
                </g>
            </g>
        </g>
    </g>
</svg>