<?xml version="1.0" encoding="UTF-8" standalone="no"?>
<svg width="76px" height="76px" viewBox="0 0 76 76" version="1.1" xmlns="http://www.w3.org/2000/svg" xmlns:xlink="http://www.w3.org/1999/xlink" xmlns:sketch="http://www.bohemiancoding.com/sketch/ns">
    <!-- Generator: Sketch 3.3 (11970) - http://www.bohemiancoding.com/sketch -->
    <title>Group</title>
    <desc>Created with Sketch.</desc>
    <defs></defs>
    <g id="Page-1" stroke="none" stroke-width="1" fill="none" fill-rule="evenodd" sketch:type="MSPage">
        <g id="128-copy" sketch:type="MSArtboardGroup" transform="translate(-26.000000, -26.000000)">
            <g id="Group" sketch:type="MSLayerGroup" transform="translate(26.500000, 24.416667)">
                <path d="M0,26.6666667 L0,35 L0,43.3333333 L0,68.3333333 C0,72.9166667 3.73083333,76.6666667 8.33333333,76.6666667 L66.6666667,76.6666667 C71.2708333,76.6666667 75,72.9166667 75,68.3333333 L75,43.3333333 L75,35 L75,26.6666667 L0,26.6666667 L0,26.6666667 Z" id="Shape" fill="#2980B9" sketch:type="MSShapeGroup"></path>
                <path d="M8.33333333,1.66666667 C3.73083333,1.66666667 0,5.3975 0,10 L0,18.3333333 L0,26.6666667 L0,30.8333333 L0,39.1666667 L0,64.1666667 C0,68.7708333 3.73083333,72.5 8.33333333,72.5 L66.6666667,72.5 C71.2708333,72.5 75,68.7708333 75,64.1666667 L75,39.1666667 L75,30.8333333 L75,26.6666667 L75,18.3333333 L75,14.1666667 L62.5,1.66666667 L58.3333333,1.66666667 L50,1.66666667 L8.33333333,1.66666667 L8.33333333,1.66666667 Z" id="Shape" fill="#3498DB" sketch:type="MSShapeGroup"></path>
                <path d="M12.5,1.66666667 L12.5,5.83333333 L12.5,10 L12.5,18.3333333 C12.5,22.9358333 16.2308333,26.6666667 20.8333333,26.6666667 L25,26.6666667 L41.6666667,26.6666667 L50,26.6666667 L54.1666667,26.6666667 C58.7708333,26.6666667 62.5,22.9358333 62.5,18.3333333 L62.5,10.6508333 L62.5,10 L62.5,5.83333333 L62.5,1.66666667 L12.5,1.66666667 L12.5,1.66666667 Z" id="Shape" fill="#2980B9" sketch:type="MSShapeGroup"></path>
                <path d="M20.8333333,43.3333333 C16.2308333,43.3333333 12.5,47.0833333 12.5,51.6666667 L12.5,59.1666667 L12.5,72.5 L62.5,72.5 L62.5,59.1666667 L62.5,51.6666667 C62.5,47.0833333 58.7708333,43.3333333 54.1666667,43.3333333 L41.6666667,43.3333333 L20.8333333,43.3333333 L20.8333333,43.3333333 Z" id="Shape" fill="#ECF0F1" sketch:type="MSShapeGroup"></path>
                <rect id="Rectangle-path" fill="#BDC3C7" sketch:type="MSShapeGroup" x="12.5" y="72.5" width="50" height="4.16666667"></rect>
                <path d="M16.6666667,1.66666667 L16.6666667,5.83333333 L16.6666667,14.1666667 C16.6666667,18.75 20.3975,22.5 25,22.5 L29.1666667,22.5 L45.8333333,22.5 L50,22.5 C54.6041667,22.5 58.3333333,18.75 58.3333333,14.1666667 L58.3333333,6.25 L58.3333333,5.83333333 L58.3333333,1.66666667 L16.6666667,1.66666667 L16.6666667,1.66666667 Z" id="Shape" fill="#ECF0F1" sketch:type="MSShapeGroup"></path>
                <path d="M20.8333333,5.83333333 L20.8333333,14.1666667 C20.8333333,16.4679167 22.69875,18.3333333 25,18.3333333 L29.1666667,18.3333333 L33.3333333,18.3333333 C35.6333333,18.3333333 37.5,16.4679167 37.5,14.1666667 L37.5,5.83333333 L29.1666667,5.83333333 L20.8333333,5.83333333 L20.8333333,5.83333333 Z" id="Shape" fill="#95A5A6" sketch:type="MSShapeGroup"></path>
                <g transform="translate(20.833333, 0.000000)" id="Rectangle-path" fill="#BDC3C7" sketch:type="MSShapeGroup">
                    <rect x="0" y="51.6666667" width="33.3333333" height="4.16666667"></rect>
                    <rect x="0" y="60" width="33.3333333" height="4.16666667"></rect>
                    <rect x="0" y="1.66666667" width="16.6666667" height="4.16666667"></rect>
                </g>
            </g>
        </g>
    </g>
</svg>
